<svg xmlns="http://www.w3.org/2000/svg" viewBox="0 0 107 35" enable-background="new 0 0 107 35"><path fill="#fff" d="m17.891737 0c-9.8813582 0-17.891737 8.0562468-17.891737 17.9941425 0 7.8768024 5.0344205 14.5669117 12.0419436 17.0050526l.2638035-3.0046082 10.8056135-4.1481113.6280174 7.1534252c7.0086212-2.4375229 12.0440502-9.1281624 12.0440502-17.0057583 0-9.9378957-8.0104218-17.9941425-17.8916912-17.9941425m-5.3204317 11.4162521h1.5202808l-.4278955-4.3829703 4.2384911-3.2477188 4.217514 3.2477188-.4278965 4.3829703h1.5203247v2.5576439h-1.3186646l.1878777 2.1397667-8.6735058 3.3296394.4802084-5.4694061h-1.3167343v-2.5576439zm.1257362 16.1220055l.3194952-3.638649 9.4304676-3.6202221.2986469 3.4013863-10.0486097 3.8574848m2.6582184-16.1220055l-.35952-3.9040947h5.7022009l-.35952 3.9040947h-4.9831609m26.3847914-1.4123926h3.0033569v6.8629599h7.8090363v-6.8629599h3.0033531v17.2538643h-3.0033531v-7.7811832h-7.8090363v7.7811832h-3.0033569v-17.2538643m27.4396591 14.4749117c0 .6766186.14431.9424095.648819.9424095.1681671 0 .3844376 0 .6728592-.0482807v1.9090118c-.4084854.1449394-1.2735748.3140717-1.7301636.3140717-1.105217 0-1.8981476-.3866425-2.1142197-1.5223713-1.0813599 1.0632591-2.8353882 1.5223713-4.3009872 1.5223713-2.2344742 0-4.2528763-1.2082024-4.2528763-3.6488934 0-3.1173096 2.4748001-3.6247005 4.7814369-3.8905888 1.970295-.3624516 3.7243156-.1449413 3.7243156-1.7639732 0-1.4257088-1.4657898-1.6915989-2.5709991-1.6915989-1.5377617 0-2.6189194.6283398-2.7391815 1.9815807h-2.7389755c.1922188-3.2139711 2.9071465-4.1563816 5.6463242-4.1563816 2.4268875 0 4.9736481.9906921 4.9736481 3.6247025v6.4279404m-2.7389833-3.4797611c-.8410263.5557709-2.1625137.53158-3.3639297.7490883-1.177372.1933212-2.2344818.6282425-2.2344818 2.0782413 0 1.2323914 1.5618134 1.594841 2.5229034 1.594841 1.2012253 0 3.0755081-.6282406 3.0755081-2.3681202v-2.0540504zm5.695015-6.2346211h2.570816v2.4165001h.0481033c.3122787-1.3290501 1.9462433-2.7547607 3.6281204-2.7547607.6247559 0 .792923.0482807 1.0332413.0724697v2.658102c-.3844376-.0482807-.792923-.1207504-1.1773605-.1207504-1.8740921 0-3.3639374 1.5223694-3.3639374 4.2772293v5.9445438h-2.7389832v-12.4933338zm8.5296173-4.7605295h2.7391739v6.3795595h.0481033c.7448273-1.2081995 2.306633-1.9572906 3.7000732-1.9572906 3.9165497 0 5.8146896 2.99646 5.8146896 6.6453514 0 3.3589115-1.6818695 6.5245037-5.3580856 6.5245037-1.6818771 0-3.4840088-.4107304-4.3009872-2.0539532h-.0479126v1.7156925h-2.5950546v-17.2538633m6.1269608 6.5970698c-2.3066254 0-3.4839935 1.7640705-3.4839935 4.4221725 0 2.5131607 1.2735748 4.3980789 3.4839935 4.3980789 2.4988556 0 3.4358978-2.2231808 3.4358978-4.3980789 0-2.2714615-1.1771698-4.4221725-3.4358978-4.4221725m18.8859939 7.8778419c0 .6766186.1443253.9424095.6488266.9424095.1681671 0 .3844376 0 .6728592-.0482807v1.9090118c-.4084854.1449394-1.2735825.3140717-1.7301712.3140717-1.1052094 0-1.89814-.3866425-2.114212-1.5223713-1.0813599 1.0632591-2.8353958 1.5223713-4.3009872 1.5223713-2.2344818 0-4.2528839-1.2082024-4.2528839-3.6488934 0-3.1173096 2.4748001-3.6247005 4.7814407-3.8905888 1.9702988-.3624516 3.7243271-.1449413 3.7243271-1.7639732 0-1.4257088-1.4657974-1.6915989-2.5710068-1.6915989-1.5377579 0-2.6189194.6283398-2.7391739 1.9815807h-2.7389832c.192215-3.2139711 2.9071503-4.1563816 5.6463242-4.1563816 2.4268875 0 4.9736404.9906921 4.9736404 3.6247025v6.4279404zm-2.7389679-3.4797611c-.8410416.5557709-2.1625214.53158-3.363945.7490883-1.1773605.1933212-2.2344666.6282425-2.2344666 2.0782413 0 1.2323914 1.5617981 1.594841 2.5228882 1.594841 1.2012329 0 3.0755234-.6282406 3.0755234-2.3681202v-2.0540504"/></svg>